<svg width="34" height="34" viewBox="0 0 34 34" fill="none" xmlns="http://www.w3.org/2000/svg">
<g clip-path="url(#clip0_1635_143289)">
<path d="M22.9668 20.1451C23.4697 20.3474 26.2585 21.6956 26.8299 21.9652C27.4014 22.2349 27.7443 22.3472 27.9043 22.5944C28.0643 22.8416 28.0643 23.9426 27.5843 25.2459C27.1271 26.5492 24.8641 27.7401 23.7669 27.8974C22.784 28.0322 21.5496 28.0996 20.201 27.6727C19.378 27.4255 18.3266 27.0885 16.9779 26.5042C11.309 24.0999 7.58302 18.4823 7.30872 18.1003L7.30427 18.0945C7.01318 17.7131 5 15.075 5 12.3479C5 9.60656 6.46295 8.25834 6.96584 7.69658C7.49158 7.13482 8.08591 7 8.4745 7H9.57172C9.9146 7.02247 10.3946 6.88765 10.8518 7.96622C11.309 9.08974 12.4519 11.8311 12.589 12.1008C12.7262 12.3704 12.8176 12.685 12.6348 13.067C12.4519 13.4265 12.3376 13.6737 12.0633 13.9883C11.789 14.3029 11.469 14.7073 11.2175 14.9545C10.9204 15.2466 10.6461 15.5387 10.9661 16.1005C11.309 16.6622 12.429 18.4823 14.1206 19.9654C16.2693 21.8529 18.098 22.4596 18.6694 22.7292C19.2409 23.0213 19.5838 22.9764 19.9038 22.5944C20.2238 22.2349 21.2982 20.9765 21.6868 20.4148C22.0754 19.8755 22.4411 19.9654 22.9668 20.1451Z" fill="#031263" stroke="#031263" stroke-width="1.08"/>
</g>
<defs>
<clipPath id="clip0_1635_143289">
<rect width="34" height="34" fill="white"/>
</clipPath>
</defs>
</svg>
