<svg width="40" height="40" viewBox="0 0 40 40" fill="none" xmlns="http://www.w3.org/2000/svg">
<path d="M0 8.88975C0 6.79462 0 5.74706 0.650874 5.09619C1.30175 4.44531 2.34931 4.44531 4.44444 4.44531H10.5998C11.6653 4.44531 12.1981 4.44531 12.6527 4.66272C12.7605 4.71426 12.864 4.77442 12.9621 4.8426C13.376 5.13017 13.6395 5.59315 14.1667 6.51912V6.51912C14.6938 7.44508 14.9574 7.90807 15.3712 8.19564C15.4693 8.26382 15.5728 8.32397 15.6806 8.37552C16.1353 8.59292 16.668 8.59292 17.7335 8.59292H33.3333C35.4285 8.59292 36.476 8.59292 37.1269 9.2438C37.7778 9.89467 37.7778 10.9422 37.7778 13.0374V28.8898C37.7778 30.9849 37.7778 32.0325 37.1269 32.6833C36.476 33.3342 35.4285 33.3342 33.3333 33.3342H4.44444C2.34931 33.3342 1.30175 33.3342 0.650874 32.6833C0 32.0325 0 30.9849 0 28.8898L0 8.88975Z" fill="#3756F9"/>
</svg>
