<svg width="46" height="46" viewBox="0 0 46 46" fill="none" xmlns="http://www.w3.org/2000/svg">
<path d="M5.02668 17.6959C5.02679 17.6958 5.02691 17.6958 5.02701 17.6959L12.6296 23.1695C13.4984 23.7947 13.8623 24.9028 13.531 25.9147L10.6253 34.7732C9.88401 37.0361 12.4975 38.9182 14.4412 37.5201L22.0439 32.0456C22.9127 31.4196 24.088 31.4196 24.9568 32.0456L32.5595 37.5201C34.5023 38.9182 37.1167 37.0361 36.3754 34.7732L33.4708 25.9147C33.1378 24.9027 33.5018 23.7947 34.3714 23.1695L41.9734 17.6958C43.9155 16.2966 42.9187 13.2515 40.517 13.2515L31.1196 13.2517C30.0463 13.2517 29.0925 12.5662 28.7618 11.5543L25.8583 2.69859C25.1161 0.433804 21.8857 0.433804 21.1426 2.69859L18.2372 11.555C17.9064 12.567 16.9562 13.2524 15.8811 13.2524L6.48292 13.2522C4.08156 13.2522 3.08448 16.2971 5.02635 17.6958C5.02644 17.6959 5.02657 17.6959 5.02668 17.6959Z" fill="#FFE01A"/>
</svg>
