<svg width="46" height="46" viewBox="0 0 46 46" fill="none" xmlns="http://www.w3.org/2000/svg">
<path fill-rule="evenodd" clip-rule="evenodd" d="M4 9C4 6.79086 5.79086 5 8 5H37C39.2091 5 41 6.79086 41 9V38C41 40.2091 39.2091 42 37 42H8C5.79086 42 4 40.2091 4 38V9ZM13 19C13 17.8954 13.8954 17 15 17H30C31.1046 17 32 17.8954 32 19C32 20.1046 31.1046 21 30 21H15C13.8954 21 13 20.1046 13 19ZM15 27C13.8954 27 13 27.8954 13 29C13 30.1046 13.8954 31 15 31H30C31.1046 31 32 30.1046 32 29C32 27.8954 31.1046 27 30 27H15Z" fill="#FFE01A"/>
</svg>
