<svg width="56" height="56" viewBox="0 0 56 56" fill="none" xmlns="http://www.w3.org/2000/svg">
<path d="M44.8182 34.8182C44.5156 35.5037 44.4254 36.2641 44.5591 37.0013C44.6928 37.7386 45.0442 38.4189 45.5682 38.9545L45.7045 39.0909C46.1272 39.5131 46.4624 40.0144 46.6912 40.5662C46.9199 41.118 47.0377 41.7095 47.0377 42.3068C47.0377 42.9042 46.9199 43.4956 46.6912 44.0475C46.4624 44.5993 46.1272 45.1006 45.7045 45.5227C45.2824 45.9453 44.7811 46.2806 44.2293 46.5094C43.6775 46.7381 43.086 46.8558 42.4886 46.8558C41.8913 46.8558 41.2998 46.7381 40.748 46.5094C40.1962 46.2806 39.6949 45.9453 39.2727 45.5227L39.1364 45.3864C38.6007 44.8624 37.9204 44.5109 37.1832 44.3773C36.4459 44.2436 35.6855 44.3338 35 44.6364C34.3278 44.9245 33.7545 45.4028 33.3507 46.0126C32.9469 46.6223 32.7302 47.3368 32.7273 48.0682V48.4545C32.7273 49.6601 32.2484 50.8162 31.3959 51.6687C30.5435 52.5211 29.3873 53 28.1818 53C26.9763 53 25.8201 52.5211 24.9677 51.6687C24.1153 50.8162 23.6364 49.6601 23.6364 48.4545V48.25C23.6188 47.4977 23.3753 46.7682 22.9375 46.1561C22.4998 45.5441 21.888 45.0779 21.1818 44.8182C20.4963 44.5156 19.7359 44.4254 18.9987 44.5591C18.2614 44.6928 17.5811 45.0442 17.0455 45.5682L16.9091 45.7045C16.4869 46.1272 15.9856 46.4624 15.4338 46.6912C14.882 46.9199 14.2905 47.0377 13.6932 47.0377C13.0958 47.0377 12.5044 46.9199 11.9525 46.6912C11.4007 46.4624 10.8994 46.1272 10.4773 45.7045C10.0547 45.2824 9.71938 44.7811 9.49064 44.2293C9.26189 43.6775 9.14415 43.086 9.14415 42.4886C9.14415 41.8913 9.26189 41.2998 9.49064 40.748C9.71938 40.1962 10.0547 39.6949 10.4773 39.2727L10.6136 39.1364C11.1376 38.6007 11.4891 37.9204 11.6227 37.1832C11.7564 36.4459 11.6662 35.6855 11.3636 35C11.0755 34.3278 10.5972 33.7545 9.98742 33.3507C9.37767 32.9469 8.66315 32.7302 7.93182 32.7273H7.54545C6.33992 32.7273 5.18377 32.2484 4.33133 31.3959C3.47889 30.5435 3 29.3873 3 28.1818C3 26.9763 3.47889 25.8201 4.33133 24.9677C5.18377 24.1153 6.33992 23.6364 7.54545 23.6364H7.75C8.50226 23.6188 9.23183 23.3753 9.84386 22.9375C10.4559 22.4998 10.9221 21.888 11.1818 21.1818C11.4844 20.4963 11.5746 19.7359 11.4409 18.9987C11.3072 18.2614 10.9558 17.5811 10.4318 17.0455L10.2955 16.9091C9.87283 16.4869 9.53757 15.9856 9.30882 15.4338C9.08007 14.882 8.96233 14.2905 8.96233 13.6932C8.96233 13.0958 9.08007 12.5044 9.30882 11.9525C9.53757 11.4007 9.87283 10.8994 10.2955 10.4773C10.7176 10.0547 11.2189 9.71938 11.7707 9.49064C12.3225 9.26189 12.914 9.14415 13.5114 9.14415C14.1087 9.14415 14.7002 9.26189 15.252 9.49064C15.8038 9.71938 16.3051 10.0547 16.7273 10.4773L16.8636 10.6136C17.3993 11.1376 18.0796 11.4891 18.8168 11.6227C19.5541 11.7564 20.3145 11.6662 21 11.3636H21.1818C21.854 11.0755 22.4273 10.5972 22.8311 9.98742C23.2349 9.37767 23.4516 8.66315 23.4545 7.93182V7.54545C23.4545 6.33992 23.9334 5.18377 24.7859 4.33133C25.6383 3.47889 26.7945 3 28 3C29.2055 3 30.3617 3.47889 31.2141 4.33133C32.0666 5.18377 32.5455 6.33992 32.5455 7.54545V7.75C32.5484 8.48133 32.7651 9.19585 33.1689 9.8056C33.5727 10.4154 34.146 10.8937 34.8182 11.1818C35.5037 11.4844 36.2641 11.5746 37.0013 11.4409C37.7386 11.3072 38.4189 10.9558 38.9545 10.4318L39.0909 10.2955C39.5131 9.87283 40.0144 9.53757 40.5662 9.30882C41.118 9.08007 41.7095 8.96233 42.3068 8.96233C42.9042 8.96233 43.4956 9.08007 44.0475 9.30882C44.5993 9.53757 45.1006 9.87283 45.5227 10.2955C45.9453 10.7176 46.2806 11.2189 46.5094 11.7707C46.7381 12.3225 46.8558 12.914 46.8558 13.5114C46.8558 14.1087 46.7381 14.7002 46.5094 15.252C46.2806 15.8038 45.9453 16.3051 45.5227 16.7273L45.3864 16.8636C44.8624 17.3993 44.5109 18.0796 44.3773 18.8168C44.2436 19.5541 44.3338 20.3145 44.6364 21V21.1818C44.9245 21.854 45.4028 22.4273 46.0126 22.8311C46.6223 23.2349 47.3368 23.4516 48.0682 23.4545H48.4545C49.6601 23.4545 50.8162 23.9334 51.6687 24.7859C52.5211 25.6383 53 26.7945 53 28C53 29.2055 52.5211 30.3617 51.6687 31.2141C50.8162 32.0666 49.6601 32.5455 48.4545 32.5455H48.25C47.5187 32.5484 46.8041 32.7651 46.1944 33.1689C45.5846 33.5727 45.1063 34.146 44.8182 34.8182Z" stroke="white" stroke-width="2.4"/>
<circle cx="27.9896" cy="27.9896" r="8.33333" stroke="white" stroke-width="2.4"/>
</svg>
