<svg width="40" height="40" viewBox="0 0 40 40" fill="none" xmlns="http://www.w3.org/2000/svg">
<path d="M31.1115 18.315V13.1537C31.1115 12.5085 30.6671 12.0784 30.0004 12.0784H17.1115C16.6671 12.0784 16.4449 11.8634 16.2227 11.6483L13.556 8.20745C13.3338 7.9924 13.1115 7.77734 12.6671 7.77734H3.33377C2.6671 7.77734 2.22266 8.4225 2.22266 8.85261V33.3687C2.22266 34.0139 2.6671 34.444 3.33377 34.444H28.6671C29.1115 34.444 29.556 34.229 29.556 33.7988L37.7782 18.9601C38.0004 18.7451 37.7782 18.315 37.3338 18.315H12.2227C11.7782 18.315 11.556 18.53 11.3338 18.9601L4.88932 34.444" stroke="#3756F9" stroke-width="2.66667" stroke-miterlimit="10"/>
</svg>
