<svg width="40" height="40" viewBox="0 0 40 40" fill="none" xmlns="http://www.w3.org/2000/svg">
<path d="M24.7685 13.5093C24.9138 13.8445 25.2304 14.0737 25.5942 14.1072L36.8077 15.14C37.0997 15.1669 37.2172 15.5304 36.9963 15.7232L28.5426 23.098C28.2655 23.3398 28.1434 23.7142 28.2248 24.0729L30.7017 34.9862C30.7664 35.2712 30.4591 35.4956 30.2073 35.3471L20.5079 29.6278C20.1945 29.443 19.8055 29.443 19.4921 29.6278L9.79269 35.3471C9.54094 35.4956 9.23363 35.2712 9.29832 34.9862L11.7752 24.0728C11.8566 23.7142 11.7345 23.3398 11.4574 23.098L3.00371 15.7232C2.7828 15.5304 2.90035 15.1669 3.19227 15.14L14.4058 14.1072C14.7696 14.0737 15.0862 13.8445 15.2315 13.5093L19.6942 3.21865C19.8102 2.95103 20.1898 2.95103 20.3058 3.21865L24.7685 13.5093Z" stroke="#9999A3" stroke-width="2" stroke-linejoin="round"/>
</svg>
