<svg width="66" height="66" viewBox="0 0 66 66" fill="none" xmlns="http://www.w3.org/2000/svg">
<circle cx="33" cy="33" r="31.5" stroke="white" stroke-width="3"/>
<path d="M25.9467 27.9918L27.4467 27.9987V27.9918H25.9467ZM28.0826 20.0904L27.0334 19.0184L27.0334 19.0184L28.0826 20.0904ZM38.3955 20.0904L39.4447 19.0184L38.3955 20.0904ZM40.5313 28.8626L42.0313 28.8744V28.8626H40.5313ZM39.1965 32.9238L37.98 32.0462V32.0462L39.1965 32.9238ZM35.733 35.5142L35.2297 34.1012L35.2274 34.102L35.733 35.5142ZM22.6944 40.1819L22.1888 38.7696L22.1822 38.772L22.6944 40.1819ZM19.2484 42.7934L20.4705 43.6632H20.4705L19.2484 42.7934ZM26.92 34.0141C27.4434 34.6562 28.3883 34.7524 29.0304 34.2289C29.6725 33.7055 29.7687 32.7606 29.2452 32.1185L26.92 34.0141ZM16.7501 44.5984C16.5283 45.3966 16.9955 46.2235 17.7937 46.4452C18.5919 46.667 19.4188 46.1998 19.6406 45.4016L16.7501 44.5984ZM27.4467 27.9918V25.137H24.4467V27.9918H27.4467ZM27.4467 25.137C27.4467 23.6525 28.049 22.2222 29.1318 21.1624L27.0334 19.0184C25.3811 20.6355 24.4467 22.8358 24.4467 25.137H27.4467ZM29.1318 21.1624C30.2157 20.1016 31.6925 19.5 33.239 19.5V16.5C30.9174 16.5 28.6846 17.4023 27.0334 19.0184L29.1318 21.1624ZM33.239 19.5C34.7855 19.5 36.2624 20.1016 37.3463 21.1624L39.4447 19.0184C37.7935 17.4023 35.5606 16.5 33.239 16.5V19.5ZM37.3463 21.1624C38.4291 22.2221 39.0313 23.6525 39.0313 25.137H42.0313C42.0313 22.8358 41.0971 20.6355 39.4447 19.0184L37.3463 21.1624ZM39.0313 25.137V28.8626H42.0313V25.137H39.0313ZM39.0314 28.8508C39.0224 29.9927 38.6571 31.1076 37.98 32.0462L40.413 33.8013C41.4512 32.3622 42.0173 30.6431 42.0313 28.8744L39.0314 28.8508ZM37.98 32.0462C37.3025 32.9853 36.3442 33.7043 35.2297 34.1012L36.2363 36.9273C37.9165 36.3288 39.3752 35.24 40.413 33.8013L37.98 32.0462ZM35.2274 34.102L22.1888 38.7696L23.1999 41.5941L36.2386 36.9265L35.2274 34.102ZM22.1822 38.772C20.5061 39.3809 19.0548 40.4787 18.0264 41.9236L20.4705 43.6632C21.1417 42.7202 22.095 41.9955 23.2066 41.5917L22.1822 38.772ZM29.2452 32.1185C28.1377 30.7599 27.4404 29.3582 27.4467 27.9987L24.4467 27.9849C24.4358 30.3581 25.6283 32.4297 26.92 34.0141L29.2452 32.1185ZM18.0264 41.9236C17.445 42.7404 17.0148 43.6458 16.7501 44.5984L19.6406 45.4016C19.812 44.7847 20.0912 44.1962 20.4705 43.6632L18.0264 41.9236Z" fill="white"/>
<path d="M47.8086 44.9995C47.5907 44.2092 47.2353 43.4569 46.7534 42.7774C45.9036 41.5789 44.7011 40.6642 43.3072 40.1559L40.4054 39.1133" stroke="white" stroke-width="3" stroke-miterlimit="10" stroke-linecap="round" stroke-linejoin="round"/>
</svg>
