<svg width="30" height="40" viewBox="0 0 30 40" fill="none" xmlns="http://www.w3.org/2000/svg">
    <path d="M26.31 9.843a.62.62 0 0 1-.858.009 13.922 13.922 0 0 0-9.46-3.698C8.251 6.154 2 12.42 2 20.154s6.251 14 13.991 14c6.26 0 11.523-4.099 13.322-9.755a.576.576 0 0 0-.56-.745H26.31a.623.623 0 0 0-.574.398 10.49 10.49 0 0 1-9.745 6.602c-5.796 0-10.506-4.707-10.506-10.5 0-5.792 4.71-10.5 10.506-10.5 2.692 0 5.113 1.035 6.958 2.703a.575.575 0 0 1 .01.835l-4.192 4.188a.6.6 0 0 0 .425 1.024H29.4a.6.6 0 0 0 .6-.6V7.602a.6.6 0 0 0-1.024-.424l-2.667 2.665z" fill="#797986"/>
</svg>
