<svg width="100" height="100" viewBox="0 0 100 100" fill="none" xmlns="http://www.w3.org/2000/svg">
<circle cx="50" cy="50" r="50" fill="#BFBFC5"/>
<path d="M41.4384 50.4518C39.3515 47.892 37.7078 44.8708 37.7228 41.6241V36.6578C37.7228 33.365 39.0593 30.2071 41.4384 27.8787C43.8174 25.5503 47.0441 24.2422 50.4086 24.2422C53.7731 24.2422 56.9999 25.5503 59.3789 27.8787C61.758 30.2071 63.0944 33.365 63.0944 36.6578V43.1389C63.0744 45.6706 62.2643 48.1356 60.7723 50.2038C59.2804 52.272 57.178 53.8445 54.7472 54.7103L32.0649 62.8301C29.6402 63.711 27.5486 65.2962 26.0703 67.3733C25.2347 68.5473 24.6176 69.8468 24.2383 71.2119" stroke="white" stroke-width="3.33333" stroke-miterlimit="10" stroke-linecap="round" stroke-linejoin="round"/>
<path d="M75.7578 71.2124C75.3788 69.8375 74.7604 68.5289 73.9222 67.3469C72.4438 65.2619 70.352 63.6707 67.9271 62.7865L62.879 60.9727" stroke="white" stroke-width="3.33333" stroke-miterlimit="10" stroke-linecap="round" stroke-linejoin="round"/>
</svg>
